<svg xmlns="http://www.w3.org/2000/svg" width="720" height="238" viewBox="0 0 720 238" font-family="-apple-system, Segoe UI, Helvetica, Arial, sans-serif">
  <rect x="1" y="1" width="718" height="236" rx="12" fill="#ffffff" stroke="#d0d7de"/>
  <text x="24" y="38" font-size="18" font-weight="700" fill="#1f2328">MarkerBase &#183; pipeline status</text>
  <text x="696" y="38" font-size="12" text-anchor="end" fill="#57606a">updated 2026-07-01</text>
  <text x="24" y="80"><tspan font-size="30" font-weight="700" fill="#1f2328">7</tspan><tspan font-size="14" fill="#57606a"> papers seen</tspan></text>
  <text x="24" y="114" font-size="12" fill="#1f2328">Extracted</text><rect x="248" y="102" width="400" height="16" rx="8" fill="#eaeef2"/><rect x="248" y="102" width="400.0" height="16" rx="8" fill="#2da44e"/><text x="656.0" y="114" font-size="12" font-weight="700" fill="#1f2328">3</text><text x="24" y="144" font-size="12" fill="#1f2328">Eligible — to extract</text><rect x="248" y="132" width="400" height="16" rx="8" fill="#eaeef2"/><rect x="248" y="132" width="133.3" height="16" rx="8" fill="#0969da"/><text x="389.3" y="144" font-size="12" font-weight="700" fill="#1f2328">1</text><text x="24" y="174" font-size="12" fill="#1f2328">Ineligible</text><rect x="248" y="162" width="400" height="16" rx="8" fill="#eaeef2"/><rect x="248" y="162" width="133.3" height="16" rx="8" fill="#57606a"/><text x="389.3" y="174" font-size="12" font-weight="700" fill="#1f2328">1</text><text x="24" y="204" font-size="12" fill="#1f2328">Excluded / duplicate</text><rect x="248" y="192" width="400" height="16" rx="8" fill="#eaeef2"/><rect x="248" y="192" width="266.7" height="16" rx="8" fill="#afb8c1"/><text x="522.7" y="204" font-size="12" font-weight="700" fill="#1f2328">2</text>
</svg>
