<svg xmlns="http://www.w3.org/2000/svg" width="720" height="268" viewBox="0 0 720 268" font-family="-apple-system, Segoe UI, Helvetica, Arial, sans-serif">
  <rect x="1" y="1" width="718" height="266" rx="12" fill="#ffffff" stroke="#d0d7de"/>
  <text x="24" y="38" font-size="18" font-weight="700" fill="#1f2328">MarkerBase &#183; pipeline status</text>
  <text x="696" y="38" font-size="12" text-anchor="end" fill="#57606a">updated 2026-07-06</text>
  <text x="24" y="80"><tspan font-size="30" font-weight="700" fill="#1f2328">100</tspan><tspan font-size="14" fill="#57606a"> papers seen</tspan></text>
  <text x="24" y="114" font-size="12" fill="#1f2328">Extracted</text><rect x="248" y="102" width="400" height="16" rx="8" fill="#eaeef2"/><rect x="248" y="102" width="55.4" height="16" rx="8" fill="#2da44e"/><text x="311.4" y="114" font-size="12" font-weight="700" fill="#1f2328">9</text><text x="24" y="144" font-size="12" fill="#1f2328">Eligible — to extract</text><rect x="248" y="132" width="400" height="16" rx="8" fill="#eaeef2"/><rect x="248" y="132" width="147.7" height="16" rx="8" fill="#0969da"/><text x="403.7" y="144" font-size="12" font-weight="700" fill="#1f2328">24</text><text x="24" y="174" font-size="12" fill="#1f2328">Possible duplicate (to rule)</text><rect x="248" y="162" width="400" height="16" rx="8" fill="#eaeef2"/><rect x="248" y="162" width="6.2" height="16" rx="8" fill="#bf8700"/><text x="262.2" y="174" font-size="12" font-weight="700" fill="#1f2328">1</text><text x="24" y="204" font-size="12" fill="#1f2328">Extraction failed</text><rect x="248" y="192" width="400" height="16" rx="8" fill="#eaeef2"/><rect x="248" y="192" width="6.2" height="16" rx="8" fill="#cf222e"/><text x="262.2" y="204" font-size="12" font-weight="700" fill="#1f2328">1</text><text x="24" y="234" font-size="12" fill="#1f2328">Ineligible</text><rect x="248" y="222" width="400" height="16" rx="8" fill="#eaeef2"/><rect x="248" y="222" width="400.0" height="16" rx="8" fill="#57606a"/><text x="656.0" y="234" font-size="12" font-weight="700" fill="#1f2328">65</text>
</svg>
