<svg xmlns="http://www.w3.org/2000/svg" width="720" height="220" viewBox="0 0 720 220" font-family="-apple-system, Segoe UI, Helvetica, Arial, sans-serif">
  <defs><clipPath id="bar"><rect x="24" y="150" width="672" height="16" rx="8"/></clipPath></defs>
  <rect x="1" y="1" width="718" height="218" rx="12" fill="#ffffff" stroke="#d0d7de"/>
  <text x="24" y="44" font-size="18" font-weight="700" fill="#1f2328">MarkerBase &#183; pipeline status</text>
  <text x="696" y="44" font-size="12" text-anchor="end" fill="#57606a">updated 2026-07-01</text>
  <text x="24" y="104" font-size="30" font-weight="700" fill="#1f2328">0</text><text x="24" y="126" font-size="12" fill="#57606a">seen</text><text x="192" y="104" font-size="30" font-weight="700" fill="#2da44e">0</text><text x="192" y="126" font-size="12" fill="#57606a">passed</text><text x="360" y="104" font-size="30" font-weight="700" fill="#57606a">0</text><text x="360" y="126" font-size="12" fill="#57606a">failed</text><text x="528" y="104" font-size="30" font-weight="700" fill="#bf8700">0</text><text x="528" y="126" font-size="12" fill="#57606a">needs you</text>
  <g clip-path="url(#bar)"><rect x="24" y="150" width="672" height="16" fill="#afb8c1"/></g>
  <rect x="24" y="186" width="10" height="10" rx="2" fill="#2da44e"/><text x="40" y="195" font-size="11" fill="#57606a">passed</text><rect x="108" y="186" width="10" height="10" rx="2" fill="#57606a"/><text x="124" y="195" font-size="11" fill="#57606a">failed</text><rect x="192" y="186" width="10" height="10" rx="2" fill="#bf8700"/><text x="208" y="195" font-size="11" fill="#57606a">needs you</text><rect x="297" y="186" width="10" height="10" rx="2" fill="#afb8c1"/><text x="313" y="195" font-size="11" fill="#57606a">excluded/dup</text>
</svg>
